<svg width="20" height="21" viewBox="0 0 20 21" fill="none" xmlns="http://www.w3.org/2000/svg">
<g clip-path="url(#clip0_580_1347)">
<path d="M17.6583 9.43333C17.3083 9.43333 17.0166 9.15 17.0166 8.79167C17.0166 4.91667 13.8667 1.76667 9.99165 1.76667C6.11665 1.76667 2.97498 4.925 2.97498 8.8C2.97498 9.15 2.69165 9.44167 2.33332 9.44167C1.97498 9.44167 1.69165 9.15833 1.69165 8.8C1.69998 4.225 5.42498 0.5 9.99998 0.5C14.575 0.5 18.3 4.225 18.3 8.8C18.3 9.15 18.0166 9.44167 17.6583 9.44167V9.43333Z" fill="#1E0F00"/>
<path d="M16.8083 15.3917C15.9833 15.3917 15.3167 14.725 15.3167 13.9V9.64169C15.3167 8.81669 15.9833 8.15002 16.8083 8.15002C18.5667 8.15002 20 9.58336 20 11.3417V12.1917C20 13.95 18.5667 15.3834 16.8083 15.3834V15.3917ZM16.8083 9.43336C16.6917 9.43336 16.5917 9.52502 16.5917 9.64169V13.9C16.5917 14.0167 16.6833 14.1167 16.8083 14.1167C17.8667 14.1167 18.725 13.2584 18.725 12.2V11.35C18.725 10.2917 17.8667 9.43336 16.8083 9.43336Z" fill="#1E0F00"/>
<path d="M3.19167 15.3917C1.43333 15.3917 0 13.9583 0 12.2V11.35C0 9.59166 1.43333 8.15833 3.19167 8.15833C4.01667 8.15833 4.68333 8.82499 4.68333 9.64999V13.9083C4.68333 14.7333 4.01667 15.4 3.19167 15.4V15.3917ZM3.19167 9.43333C2.13333 9.43333 1.275 10.2917 1.275 11.35V12.2C1.275 13.2583 2.13333 14.1167 3.19167 14.1167C3.30833 14.1167 3.40833 14.025 3.40833 13.9V9.64166C3.40833 9.52499 3.31667 9.43333 3.19167 9.43333Z" fill="#1E0F00"/>
<path d="M13.0084 6.42502C12.8417 6.42502 12.6834 6.36668 12.5584 6.24168C11.15 4.83335 8.85003 4.83335 7.4417 6.24168C7.1917 6.49168 6.79169 6.49168 6.54169 6.24168L4.13336 3.83335C3.88336 3.58335 3.88336 3.18335 4.13336 2.93335C4.38336 2.68335 4.78336 2.68335 5.03336 2.93335L7.0167 4.91668C8.7667 3.57502 11.225 3.57502 12.975 4.91668L14.9584 2.93335C15.2084 2.68335 15.6084 2.68335 15.8584 2.93335C16.1084 3.18335 16.1084 3.58335 15.8584 3.83335L13.45 6.24168C13.325 6.36668 13.1584 6.42502 13 6.42502H13.0084Z" fill="#1E0F00"/>
<path d="M14.2583 18.8H11.7083C11.3583 18.8 11.0667 18.5167 11.0667 18.1584C11.0667 17.8 11.35 17.5167 11.7083 17.5167H14.2583C15.7833 17.5167 17.025 16.275 17.025 14.75V14.6C17.025 14.25 17.3083 13.9584 17.6667 13.9584C18.025 13.9584 18.3083 14.2417 18.3083 14.6V14.75C18.3083 16.975 16.4917 18.7917 14.2667 18.7917L14.2583 18.8Z" fill="#1E0F00"/>
<path d="M9.99999 20.5C8.70833 20.5 7.65833 19.45 7.65833 18.1583C7.65833 16.8667 8.70833 15.8167 9.99999 15.8167C11.2917 15.8167 12.3417 16.8667 12.3417 18.1583C12.3417 19.45 11.2917 20.5 9.99999 20.5ZM9.99999 17.0917C9.41666 17.0917 8.93333 17.5667 8.93333 18.1583C8.93333 18.75 9.40833 19.225 9.99999 19.225C10.5917 19.225 11.0667 18.75 11.0667 18.1583C11.0667 17.5667 10.5917 17.0917 9.99999 17.0917Z" fill="#1E0F00"/>
</g>
<defs>
<clipPath id="clip0_580_1347">
<rect width="20" height="20" fill="white" transform="translate(0 0.5)"/>
</clipPath>
</defs>
</svg>
