<svg width="82" height="84" viewBox="0 0 82 84" fill="none" xmlns="http://www.w3.org/2000/svg">
<path d="M73.7767 70.1709H65.1064V78.5067H73.7767V70.1709Z" fill="#1464FF"/>
<path d="M59.8374 70.1709H51.1671V78.5067H59.8374V70.1709Z" fill="#8AC650"/>
<path d="M73.7767 55.9529H65.1064V64.2886H73.7767V55.9529Z" fill="#8AC650"/>
<path d="M59.8374 64.2606V55.9248H56.5198C54.9308 57.7648 53.0908 59.4654 51.1671 61.0266V64.2606H59.8374Z" fill="#1464FF"/>
<path d="M73.7767 41.7068H65.1064V50.0425H73.7767V41.7068Z" fill="#1464FF"/>
<path d="M42.9429 66.6583V83.6365H46.1211V64.7068C45.0338 65.4038 43.9744 66.045 42.9429 66.6583Z" fill="#1464FF"/>
<path d="M46.121 40.7867V22.5539H78.8228V83.6364H82.001V22.1915C82.001 20.6303 80.7465 19.3758 79.1853 19.3758H74.641C73.8325 13.9673 69.5113 9.67394 64.0749 8.97697V1.58909C64.0749 0.724848 63.3501 0 62.4859 0C61.6216 0 60.8968 0.724848 60.8968 1.58909V8.97697C55.4604 9.67394 51.1113 13.9673 50.3307 19.3758H45.7865C45.0337 19.3758 44.3089 19.6824 43.8071 20.1842C43.2774 20.7139 42.9707 21.4388 42.9707 22.1915V44.1321C44.1416 43.0727 45.201 41.9576 46.1489 40.7867H46.121ZM62.458 12.0436C66.8907 12.0436 70.5707 15.1939 71.4071 19.3758H53.481C54.3174 15.1939 58.0253 12.0436 62.4301 12.0436H62.458Z" fill="#1464FF"/>
<path d="M56.6592 39.6159C60.2556 41.7905 59.2798 44.5784 58.2483 47.3105C54.5404 56.845 40.5453 65.2365 33.3526 67.6062L36.0289 83.6087H15.761L13.1962 74.325H11.1889L12.4713 83.6087H2.01679L0.121034 72.7638C-0.854723 64.1493 4.13558 59.3262 12.6944 57.5699L23.3441 62.6996L28.9198 55.0887C36.3913 53.0256 43.7513 49.039 48.881 42.4596C51.3344 39.2814 54.2338 38.1105 56.6871 39.6159H56.6592Z" fill="#1464FF"/>
<path d="M73.7767 27.4885H65.1064V35.8243H73.7767V27.4885Z" fill="#1464FF"/>
<path d="M59.8374 27.4885H51.1671V35.8243H59.8374V27.4885Z" fill="#8AC650"/>
<path d="M33.2689 35.4341C33.2132 35.2389 33.0459 35.0716 32.8508 34.988L30.258 34.8765C30.258 34.8765 29.7283 34.9044 29.6168 34.9323L28.892 35.0438C26.9962 26.4571 19.4411 21.9686 12.1089 23.7529C10.7986 24.0874 9.59984 24.5892 8.51257 25.2583C3.27136 28.4644 1.01317 35.1832 2.49075 40.4244C1.79378 40.731 0.818022 41.9577 1.20833 43.2123C1.62651 44.5504 2.90893 45.3868 4.24711 45.0244L5.72469 44.662C5.86408 46.4741 6.39378 48.2583 7.4253 49.9032C10.8265 55.451 18.075 57.1795 23.6229 53.7783C28.6968 50.6559 30.5647 44.3274 28.2229 39.0026L32.8786 37.8316C33.018 37.8038 33.1574 37.748 33.2689 37.6644C33.5756 37.4692 33.715 37.1904 33.6592 36.9395L33.2689 35.4062V35.4341ZM4.88833 41.5674C5.19499 40.9819 5.33439 40.285 5.13923 39.6159C4.07984 35.8523 5.5853 30.3323 9.93439 27.6559C10.7708 27.1541 11.6908 26.7638 12.6944 26.5129C15.4265 25.8438 18.3259 26.2898 20.7235 27.7674C23.372 29.4123 25.2398 32.2001 25.9926 35.6013C26.0483 35.8523 26.1598 36.1032 26.2714 36.3262C26.3271 36.4098 26.3271 36.5213 26.2714 36.605C26.2435 36.6886 26.1598 36.7723 26.0483 36.8001L5.19499 42.0413C4.9162 42.0971 4.69317 41.8462 4.83257 41.5674H4.88833Z" fill="#1464FF"/>
</svg>
