<svg width="39" height="39" viewBox="0 0 39 39" fill="none" xmlns="http://www.w3.org/2000/svg">
<g clip-path="url(#clip0_1447_814)">
<path d="M32.5027 13.0951C32.5027 20.3245 19.3958 34.4306 19.3958 34.4306C19.3958 34.4306 6.30066 20.3363 6.30066 13.0951C6.30066 5.85402 12.1547 0 19.3958 0C26.6369 0 32.5027 5.86578 32.5027 13.0951Z" fill="white"/>
<path d="M26.7428 35.7354H12.0372V38.7917H26.7428V35.7354Z" fill="#1464FF"/>
<path d="M19.3958 18.9962C22.4861 18.9962 24.9912 16.491 24.9912 13.4008C24.9912 10.3105 22.4861 7.80536 19.3958 7.80536C16.3056 7.80536 13.8004 10.3105 13.8004 13.4008C13.8004 16.491 16.3056 18.9962 19.3958 18.9962Z" fill="#50AAFF"/>
</g>
<defs>
<clipPath id="clip0_1447_814">
<rect width="38.7917" height="38.7917" fill="white"/>
</clipPath>
</defs>
</svg>
