<svg width="75" height="84" viewBox="0 0 75 84" fill="none" xmlns="http://www.w3.org/2000/svg">
<path d="M50.5226 15.5285V13.4933C50.5226 8.8097 47.0378 2.92727 42.2984 1.58909C42.2984 1.50545 42.2984 1.36606 42.2984 1.3103C42.3263 0.975758 42.2148 0.641212 41.9917 0.390303C41.7687 0.139394 41.4341 0 41.0996 0H32.8754C32.5408 0 32.2063 0.139394 31.9832 0.390303C31.7602 0.641212 31.6487 0.975758 31.6766 1.3103C31.6766 1.39394 31.6766 1.47758 31.6766 1.56121C27.2438 3.01091 23.5638 8.36364 23.5638 13.4655V15.5006C21.7517 16.1697 21.3057 16.9782 21.3057 17.5636C21.3057 18.3721 21.8632 19.4315 24.5396 19.9891C24.7348 20.017 24.9857 20.0727 25.2366 20.1006C25.2923 26.903 30.5057 31.977 37.0014 31.977C43.4972 31.977 48.822 26.8194 48.7663 20.1006C49.0451 20.0448 49.296 20.017 49.519 19.9612C50.2996 19.7939 52.6972 19.2364 52.6972 17.5636C52.6972 16.9503 52.2511 16.1697 50.4669 15.5006L50.5226 15.5285ZM48.1251 14.8594C45.7554 14.3855 42.2705 14.0788 37.0851 14.0788C31.8996 14.0788 28.4148 14.3855 26.0451 14.8594V13.4655C26.0451 9.61818 28.6935 5.46424 31.8996 4.04242C31.8996 5.85455 31.6766 8.28 30.7845 11.2909L33.0705 11.96C34.3529 7.61091 34.3529 4.32121 34.2135 2.34182H39.8172C39.7057 4.29333 39.7614 7.69455 41.016 11.96L43.302 11.2909C42.4378 8.33576 42.1869 5.88242 42.1869 4.04242C45.3093 5.29697 48.0972 9.61818 48.0972 13.4376V14.8315L48.1251 14.8594Z" fill="#1464FF"/>
<path d="M45.3651 34.0122L37.0851 40.5637L28.8051 34.0122C22.839 35.1274 18.4063 37.5528 15.8693 43.6025C18.4342 44.7177 20.3021 46.6692 20.9711 48.9274C30.5893 49.6243 43.6645 49.6801 53.199 49.0389C53.8681 46.7528 55.7639 44.7734 58.3008 43.6304C56.0984 37.8316 51.3033 35.1274 45.3651 34.0122Z" fill="#1464FF"/>
<path d="M62.0087 45.4703C58.4402 45.9721 55.7359 48.2861 55.7359 50.9067C55.7359 51.1576 55.7359 51.3806 55.7359 51.6036C53.8959 51.7709 51.7772 51.9103 49.3238 52.0218C38.1444 52.5515 26.5747 52.1891 18.3505 51.4364C18.3505 51.2133 18.3505 51.0182 18.3505 50.7673C18.3505 48.1745 15.7299 45.9442 12.0778 45.4703C6.6414 44.7455 4.38322 48.2582 4.55049 49.8473L5.74928 56.7891L8.4814 56.9006L7.75655 52.3285C14.5869 54.6703 30.6172 54.977 38.3675 54.977C48.6547 54.977 60.5869 54.4752 66.1905 52.4679C66.0232 53.5273 65.8559 54.6424 65.6887 55.6461C65.6329 56.0921 65.5493 56.5103 65.4935 56.9006L68.3093 56.817L69.3966 49.68C69.5081 47.5612 66.2741 44.857 61.8693 45.4703H62.0087ZM15.7299 51.1576C11.5202 50.6836 8.53716 50.0703 7.47776 49.4012C8.0911 48.3139 10.0147 47.8679 11.799 48.1188C14.1408 48.4255 15.7299 49.7358 15.7299 50.7673C15.7299 50.9345 15.7299 51.0461 15.7299 51.1576ZM58.4402 51.3249C58.4402 51.3249 58.4402 51.0739 58.4402 50.9067C58.4402 49.8473 60.0572 48.4533 62.3711 48.1467C64.3226 47.8958 66.079 48.6206 66.6644 49.5127C65.8559 50.0145 63.4584 50.7673 58.4402 51.3527V51.3249Z" fill="#8AC650"/>
<path d="M62.4547 78.3395C51.7493 81.7685 23.9541 81.7685 11.6875 78.3116C11.4365 77.1407 11.2414 75.9976 11.0741 75.0776C10.3214 75.4958 9.45716 75.8025 8.50928 76.0255C8.70443 77.0849 8.95534 78.3673 9.23413 79.6776C9.34564 80.1516 9.68019 80.5419 10.1541 80.6813C16.5105 82.6607 27.2438 83.6364 37.7262 83.6364C48.2087 83.6364 58.6075 82.6328 64.0717 80.6534C64.5178 80.4861 64.8244 80.1237 64.9359 79.6776C65.159 78.6461 65.4099 77.2522 65.6329 76.0534C64.685 75.8304 63.8208 75.5237 63.0681 75.1334C62.9008 76.1649 62.6778 77.3637 62.4547 78.3673V78.3395Z" fill="#8AC650"/>
<path d="M4.99656 73.4049C9.03899 73.4049 12.942 72.0388 12.3844 65.9334C11.9105 60.6085 9.26202 59.7722 7.17111 59.8C4.71777 59.8 2.7105 59.4655 2.90565 57.7649C2.90565 57.7649 -1.02526 59.131 0.257167 66.6861C1.17717 72.1503 2.40383 73.4328 4.96868 73.4328L4.99656 73.4049Z" fill="#1464FF"/>
<path d="M69.062 73.4049C65.0196 73.4049 61.1166 72.0388 61.6742 65.9334C62.1481 60.6085 64.7966 59.7722 66.8875 59.8C69.3408 59.8 71.3481 59.4655 71.153 57.7649C71.153 57.7649 75.0839 59.131 73.8014 66.6861C72.8814 72.1503 71.6548 73.4328 69.0899 73.4328L69.062 73.4049Z" fill="#1464FF"/>
</svg>
