<svg width="220" height="65" viewBox="0 0 220 65" fill="none" xmlns="http://www.w3.org/2000/svg">
<g clip-path="url(#clip0_2564_9925)">
<path d="M92.57 18.6826H88.82V16.6439H96.47V14.0833H94.7V10.1242C94.7 8.64697 93.49 7.4553 91.99 7.4553H79.6V10.0258H91.58V14.0833H78.67V16.6439H85.7V18.6826H79.6V21.253H92.16V25.6848H95.28V21.3515C95.28 19.8742 94.07 18.6826 92.57 18.6826Z" fill="#034EA1"/>
<path d="M198.94 7.18939H195.82V25.675H198.94V7.18939Z" fill="#034EA1"/>
<path d="M123.07 17.0871C120.25 17.0871 117.96 14.8318 117.96 12.0545C117.96 9.27727 120.25 7.02197 123.07 7.02197C125.89 7.02197 128.18 9.27727 128.18 12.0545C128.18 14.8318 125.89 17.0871 123.07 17.0871ZM123.07 14.2803C124.32 14.2803 125.34 13.2758 125.34 12.0447C125.34 10.8136 124.32 9.80909 123.07 9.80909C121.82 9.80909 120.8 10.8136 120.8 12.0447C120.8 13.2758 121.82 14.2803 123.07 14.2803Z" fill="#034EA1"/>
<path d="M135.52 7.18939H132.4V18.1114H135.52V13.4629H138.02V10.9023H135.52V7.18939Z" fill="#034EA1"/>
<path d="M176.83 7.18939H173.71V15.472H171.4V10.0356C171.35 8.67651 170 7.54394 168.32 7.4553H159.96V10.0652H168.28V15.472H165.64V12.9508H162.52V15.472H158.99V18.0326H173.7V20.5833H176.82V13.4727H179.33V10.9121H176.82V7.20909L176.83 7.18939Z" fill="#034EA1"/>
<path d="M125.32 18.5053H122.2V23.1833C122.2 24.6606 123.41 25.8523 124.91 25.8523H135.64V23.2917H125.32V18.5053Z" fill="#034EA1"/>
<path d="M215.98 7.18939V13.8371H211.69C212.05 13.1576 212.26 12.3894 212.26 11.5621C212.26 8.87348 210.04 6.67727 207.31 6.67727C204.58 6.67727 202.35 8.86364 202.35 11.5621C202.35 12.3795 202.56 13.1576 202.92 13.8371H200.88V16.2008H205.08V18.9189H208.2V16.2008H215.97V17.7962H212.7V20.1598H215.97V21.7553H219.09V7.18939H215.97H215.98ZM207.31 13.7386C206.1 13.7386 205.11 12.7636 205.11 11.572C205.11 10.3803 206.1 9.4053 207.31 9.4053C208.52 9.4053 209.51 10.3803 209.51 11.572C209.51 12.7636 208.52 13.7386 207.31 13.7386Z" fill="#034EA1"/>
<path d="M145.16 18.5053H142.04V23.1833C142.04 24.6606 143.25 25.8523 144.75 25.8523H156.44V23.2917H145.16V18.5053Z" fill="#034EA1"/>
<path d="M153.19 18.1114H156.31V7.19924H153.19V10.9515H150.77V13.5121H153.19V18.1114Z" fill="#034EA1"/>
<path d="M141.74 16.4273L144.4 10.8727L147.07 16.4273H150.15L147.08 10.0356H149.73V7.46515H139.08V10.0356H141.72L138.65 16.4273H141.74Z" fill="#034EA1"/>
<path d="M109.29 18.8303H115.43V16.2598H103.13V14.3886H115.03V11.8182H103.13V10.0159H115.43V7.44545H100.01V16.1515C100.01 17.6288 101.22 18.8205 102.72 18.8205H106.17V20.7212H98.92V23.2818H116.52V20.7212H109.28V18.8205L109.29 18.8303Z" fill="#034EA1"/>
<path d="M165.65 19.628H162.53V23.1833C162.53 24.6606 163.74 25.8523 165.24 25.8523H176.96V23.2917H165.64V19.628H165.65Z" fill="#034EA1"/>
<path d="M208.21 20.3273H205.09V23.0061C205.09 24.4833 206.3 25.675 207.8 25.675H219.09V23.1144H208.2V20.3273H208.21Z" fill="#034EA1"/>
<path d="M183.86 15.0288H192.57V7.44545H180.94V10.0258H189.46V12.4682H180.75V17.7667C180.75 19.2439 181.96 20.4356 183.46 20.4356H192.98V17.875H183.87V15.0288H183.86Z" fill="#034EA1"/>
<path d="M57.56 40.103L65.52 32.2636L32.76 0V64.5273L44.55 52.9061V27.2901L57.56 40.103Z" fill="#0080C5"/>
<path d="M44.55 40.103H57.56L44.55 27.2901V40.103Z" fill="#034EA1"/>
<path d="M7.96 24.4242L0 32.2636L32.76 64.5273V0L20.96 11.6212V37.2371L7.96 24.4242Z" fill="#8AC650"/>
<path d="M20.96 24.4242H7.96001L20.96 37.2371V24.4242Z" fill="#008B44"/>
<path d="M153.62 41.2553H150.29V44.7811H153.62V58.1061H157.91V32.5985H153.62V41.2553Z" fill="#034EA1"/>
<path d="M163.07 32.5985H158.79V58.1061H163.07V32.5985Z" fill="#034EA1"/>
<path d="M149.75 39.9947V36.4788H144.58V32.9629H140.3V36.4788H135.14V39.9947H138.76L134.54 50.5326H138.79L142.44 41.147L146.11 50.5326H150.33L146.11 39.9947H149.75Z" fill="#034EA1"/>
<path d="M217.24 32.3523H212.96V43.7174H209.79V36.2523C209.72 34.3909 207.87 32.825 205.57 32.7167H194.09V36.2917H205.52V43.7174H201.9V40.2606H197.62V43.7174H192.77V47.2333H212.96V50.7295H217.24V40.9598H220.68V37.4439H217.24V32.3523Z" fill="#034EA1"/>
<path d="M201.9 49.4197H197.62V54.3045C197.62 56.3235 199.29 57.9682 201.34 57.9682H217.43V54.4523H201.9V49.4197Z" fill="#034EA1"/>
<path d="M186.42 49.4197V49.4394C186.37 49.4394 186.32 49.4197 186.26 49.4197H170.21V54.5409C170.21 56.5599 171.88 58.2045 173.93 58.2045H189.98V49.4197H186.42ZM174.49 52.9455H185.7V54.6886H174.49V52.9455Z" fill="#034EA1"/>
<path d="M174.46 48.6909C174.46 48.6909 174.52 48.6909 174.55 48.6909C178.3 48.6909 181.35 45.6871 181.35 41.9939C181.35 40.8712 181.06 39.8076 180.56 38.872H182.18V41.2652H185.51V47.578H189.79V32.5985H185.51V37.7394H183.35V35.622H176.69V31.8894H172.2V35.622H165.54V38.8621H168.33C167.83 39.7977 167.54 40.8515 167.54 41.9841C167.54 45.6773 170.59 48.6811 174.34 48.6811C174.37 48.6811 174.4 48.6811 174.43 48.6811L174.46 48.6909ZM171.35 41.9939C171.35 40.3591 172.7 39.0197 174.37 39.0197C174.4 39.0197 174.43 39.0197 174.46 39.0197C174.49 39.0197 174.52 39.0197 174.55 39.0197C176.21 39.0197 177.57 40.3492 177.57 41.9939C177.57 43.6386 176.22 44.9682 174.55 44.9682C174.52 44.9682 174.49 44.9682 174.46 44.9682C174.43 44.9682 174.4 44.9682 174.37 44.9682C172.71 44.9682 171.35 43.6386 171.35 41.9939Z" fill="#034EA1"/>
<path d="M85.82 45.9629C81.88 45.9629 78.68 42.8114 78.68 38.9311C78.68 35.0508 81.88 31.8992 85.82 31.8992C89.76 31.8992 92.96 35.0508 92.96 38.9311C92.96 42.8114 89.76 45.9629 85.82 45.9629ZM85.82 42.053C87.57 42.053 88.99 40.6545 88.99 38.9409C88.99 37.2273 87.57 35.8189 85.82 35.8189C84.07 35.8189 82.65 37.2174 82.65 38.9409C82.65 40.6644 84.07 42.053 85.82 42.053Z" fill="#034EA1"/>
<path d="M103.2 32.1455H98.85V47.4008H103.2V40.9008H106.7V37.3258H103.2V32.1455Z" fill="#034EA1"/>
<path d="M88.96 47.9424H84.61V54.4818C84.61 56.5402 86.3 58.2144 88.39 58.2144H103.37V54.6394H88.95V47.9523L88.96 47.9424Z" fill="#034EA1"/>
<path d="M116.67 47.9424H112.31V54.4818C112.31 56.5402 114.01 58.2144 116.09 58.2144H132.42V54.6296H116.66V47.9424H116.67Z" fill="#034EA1"/>
<path d="M127.89 47.4008H132.24V32.1553H127.89V37.3947H124.5V40.9795H127.89V47.4008Z" fill="#034EA1"/>
<path d="M111.89 45.047L115.61 37.2864L119.34 45.047H123.64L119.35 36.1144H123.05V32.5295H108.18V36.1144H111.87L107.58 45.047H111.89Z" fill="#034EA1"/>
</g>
<defs>
<clipPath id="clip0_2564_9925">
<rect width="220" height="65" fill="white"/>
</clipPath>
</defs>
</svg>
