<svg width="71" height="67" viewBox="0 0 71 67" fill="none" xmlns="http://www.w3.org/2000/svg">
<path d="M63.2843 37.3933C63.5682 37.3933 63.7867 37.1718 63.7867 36.8838V32.985C63.7867 32.697 63.5682 32.4755 63.2843 32.4755H59.3085V27.8013H65.0755C65.9712 27.8013 66.692 27.0703 66.692 26.162V24.1683C66.692 23.26 65.9712 22.529 65.0755 22.529H58.107C57.1459 21.3549 55.726 20.5796 54.1094 20.5796C52.4929 20.5796 51.0512 21.3549 50.09 22.529H44.9783V21.8423C44.9783 21.5543 44.7599 21.3328 44.4759 21.3328H40.4346C40.1506 21.3328 39.9322 21.5543 39.9322 21.8423V28.488C39.9322 28.776 40.1506 28.9975 40.4346 28.9975H44.4759C44.7599 28.9975 44.9783 28.776 44.9783 28.488V27.8013H48.8885V32.4755H44.9128C44.6288 32.4755 44.4104 32.697 44.4104 32.985V36.8838C44.4104 37.1718 44.6288 37.3933 44.9128 37.3933H45.8084L36.8739 66.3687H39.8666L48.9322 37.3933H59.2867L68.243 66.3687H70.9299L62.3886 37.3933H63.328H63.2843Z" fill="#8AC650"/>
<path d="M15.3569 36.3079C6.88111 36.3079 0 43.2859 0 51.881V66.4795H13.1069L12.5608 55.4033L15.5535 54.3178L16.1433 66.5017H30.6919V51.9032C30.6919 43.308 23.8108 36.33 15.3569 36.33V36.3079Z" fill="#1464FF"/>
<path d="M40.5657 20.336C40.7405 20.336 40.8715 20.3138 41.0026 20.2695C41.374 20.1587 41.5924 19.8708 41.5924 19.5828V17.877C41.5924 17.6334 41.4613 17.434 41.2429 17.3011L38.5778 16.5036C38.5778 16.5036 38.0099 16.3928 37.8788 16.3928L37.0924 16.3264C37.3327 6.77866 30.6263 0.0221525 22.5437 0C21.102 0 19.7039 0.221525 18.4369 0.642422C12.1456 2.6583 8.0388 9.14897 8.2354 15.0637C7.42714 15.3295 6.1383 16.0827 6.18199 17.6555C6.22568 19.1619 7.38345 20.3803 8.8689 20.3803H10.5073C10.1796 22.3075 10.2888 24.3456 10.9005 26.3614C12.9976 33.1179 20.119 36.8396 26.7598 34.7129C32.8545 32.7635 36.437 26.5608 35.3885 20.336H40.5439H40.5657ZM10.8786 16.5036C11.1844 16.0384 11.3374 15.4846 11.3155 14.9086C11.1844 10.6775 14.1553 5.27229 19.3762 3.5887C20.3811 3.27857 21.4297 3.10135 22.5001 3.10135C25.5802 3.10135 28.42 4.31973 30.5171 6.53498C32.8326 8.97175 34.0778 12.3832 33.9686 16.1713C33.9686 16.2821 33.9686 16.3928 33.9686 16.5257H10.8786V16.5036Z" fill="#1464FF"/>
<path d="M55.2454 39.8745H52.5366V66.3467H55.2454V39.8745Z" fill="#8AC650"/>
</svg>
