<svg width="39" height="39" viewBox="0 0 39 39" fill="none" xmlns="http://www.w3.org/2000/svg">
<g clip-path="url(#clip0_1447_775)">
<path d="M36.36 2.73895H1.67105V32.5145H36.36V2.73895Z" fill="white"/>
<path d="M19.0156 4.64325C19.6148 4.64325 20.0989 5.13696 20.0989 5.74823C20.0989 6.35949 19.6148 6.8532 19.0156 6.8532C18.4163 6.8532 17.9323 6.35949 17.9323 5.74823C17.9323 5.13696 18.4163 4.64325 19.0156 4.64325Z" fill="#D2E6FF"/>
<path d="M33.8016 9.59216H4.22952V26.6135H33.8016V9.59216Z" fill="white"/>
<path d="M10.3376 22.9224H6.17719V25.2969H10.3376V22.9224Z" fill="#50AAFF"/>
<path d="M31.8539 22.9224H11.5476V25.2969H31.8539V22.9224Z" fill="#50AAFF"/>
<path d="M9.38101 10.8264H6.64969V13.6124H9.38101V10.8264Z" fill="#50AAFF"/>
<path d="M9.38101 14.1649H6.64969V16.9508H9.38101V14.1649Z" fill="#50AAFF"/>
<path d="M26.8523 14.9289L22.8071 13.5536L18.7505 12.1782L20.0989 16.316L21.4472 20.442L22.738 17.6678L25.2158 20.1952L26.6218 18.7728L24.1325 16.2455L26.8523 14.9289Z" fill="#1464FF"/>
<path d="M38.0311 32.6085H0V36.4054H38.0311V32.6085Z" fill="#1464FF"/>
<path d="M21.9774 33.8781H16.0652V35.1124H21.9774V33.8781Z" fill="#D2E6FF"/>
</g>
<defs>
<clipPath id="clip0_1447_775">
<rect width="38.0311" height="38.7917" fill="white"/>
</clipPath>
</defs>
</svg>
