<svg width="20" height="21" viewBox="0 0 20 21" fill="none" xmlns="http://www.w3.org/2000/svg">
<g clip-path="url(#clip0_580_1333)">
<path d="M4.89167 11.9917C4.79167 11.9917 4.69167 11.9667 4.6 11.925C4.41667 11.825 0 9.51667 0 5.39167C0 2.69167 2.19167 0.5 4.89167 0.5C7.59167 0.5 9.78333 2.69167 9.78333 5.39167C9.78333 9.51667 5.36667 11.825 5.18333 11.9167C5.09167 11.9667 4.99167 11.9833 4.89167 11.9833V11.9917ZM4.89167 1.775C2.9 1.775 1.275 3.4 1.275 5.39167C1.275 8.18333 3.98333 10.0667 4.89167 10.6167C5.8 10.0667 8.50833 8.19167 8.50833 5.39167C8.50833 3.4 6.88333 1.775 4.89167 1.775Z" fill="#1E0F00"/>
<path d="M3.19165 6.03338C2.84165 6.03338 2.54999 5.75005 2.54999 5.39172C2.54999 4.10005 3.59999 3.05005 4.89165 3.05005C5.24165 3.05005 5.53332 3.33338 5.53332 3.69172C5.53332 4.05005 5.24999 4.33338 4.89165 4.33338C4.30832 4.33338 3.82499 4.80838 3.82499 5.40005C3.82499 5.75005 3.54165 6.04172 3.18332 6.04172L3.19165 6.03338Z" fill="#1E0F00"/>
<path d="M15.1083 20.5H4.89167C2.19167 20.5 0 18.3084 0 15.6084V11.35C0 11 0.283333 10.7167 0.641667 10.7167C1 10.7167 1.28333 11 1.28333 11.3584V15.6167C1.28333 17.6084 2.90833 19.2334 4.9 19.2334H15.1167C17.1083 19.2334 18.7333 17.6084 18.7333 15.6167V5.3917C18.7333 3.40003 17.1083 1.77503 15.1167 1.77503H10.0083C9.65833 1.77503 9.36667 1.4917 9.36667 1.13337C9.36667 0.775033 9.65 0.491699 10.0083 0.491699H15.1167C17.8167 0.491699 20.0083 2.68337 20.0083 5.38337V15.6C20.0083 18.3 17.8167 20.4917 15.1167 20.4917L15.1083 20.5Z" fill="#1E0F00"/>
<path d="M12.55 20.5C12.2 20.5 11.9083 20.2167 11.9083 19.8583V1.14167C11.9083 0.791667 12.1917 0.5 12.55 0.5C12.9083 0.5 13.1917 0.783333 13.1917 1.14167V19.8667C13.1917 20.2167 12.9083 20.5083 12.55 20.5083V20.5Z" fill="#1E0F00"/>
<path d="M19.3583 15.3917H0.641667C0.283333 15.3917 0 15.1084 0 14.7584C0 14.4084 0.283333 14.1167 0.641667 14.1167H19.3667C19.7167 14.1167 20.0083 14.4 20.0083 14.7584C20.0083 15.1167 19.725 15.4 19.3667 15.4L19.3583 15.3917Z" fill="#1E0F00"/>
<path d="M19.3583 9.43336H12.55C12.2 9.43336 11.9083 9.15002 11.9083 8.79169C11.9083 8.43336 12.1917 8.15002 12.55 8.15002H19.3583C19.7083 8.15002 20 8.43336 20 8.79169C20 9.15002 19.7167 9.43336 19.3583 9.43336Z" fill="#1E0F00"/>
</g>
<defs>
<clipPath id="clip0_580_1333">
<rect width="20" height="20" fill="white" transform="translate(0 0.5)"/>
</clipPath>
</defs>
</svg>
