<svg width="65" height="75" viewBox="0 0 65 75" fill="none" xmlns="http://www.w3.org/2000/svg">
<path d="M54.3567 32.1018H43.615C41.4666 32.2253 39.6393 32.6451 38.1083 33.4106C40.5283 36.2751 41.7136 40.4483 41.7136 46.0785L41.6642 64.7222C41.6642 67.8336 40.4542 70.2289 38.3305 71.6118V74.0564H59.6165V69.0683C62.9254 69.0683 64.9503 66.9693 64.9503 64.3518L64.9997 44.424C64.9997 35.9294 61.3204 32.4969 54.3567 32.0771V32.1018Z" fill="#8AC650"/>
<path d="M27.0698 31.4597H14.0809C8.3273 31.4597 5.38874 34.6452 3.2157 39.6333C1.85755 42.7447 -0.11795 50.3998 0.0055183 54.4989C0.0795994 56.8695 2.45019 58.9438 5.58629 58.9438H26.2302C28.2551 58.9438 29.8602 56.993 29.8108 54.9187C29.7367 52.0543 27.3414 50.6961 25.8104 50.7702H9.75953L10.2781 48.6218L9.56198 38.374C9.56198 38.2258 9.61137 38.0776 9.71014 37.9789C9.80892 37.8801 9.95708 37.806 10.1052 37.806H30.0824C30.2306 37.806 30.3788 37.8801 30.4775 37.9789C30.5763 38.0776 30.6257 38.2258 30.6257 38.374L29.8108 50.1282C31.0455 51.2147 31.9345 52.8445 31.9839 54.8693C32.0332 56.672 31.3912 58.3758 30.2306 59.5611C29.2676 60.5489 27.9588 61.0922 26.6006 61.0922H8.96933V74.081H33.2185L33.1692 70.3523C37.4165 70.3523 38.9969 67.8582 38.9969 64.7468L39.0463 46.1031C39.0463 36.0774 35.2434 32.003 27.0945 31.4597H27.0698Z" fill="#1464FF"/>
<path d="M53.3441 6.32146C53.0478 5.65473 52.381 5.18555 51.5908 5.18555H46.4051C45.6149 5.18555 44.9482 5.65473 44.6519 6.32146C41.4664 7.82777 39.2687 10.9392 39.2687 14.5198V16.52C38.0834 16.8904 37.4907 17.3595 37.4907 17.8534C37.4907 18.4461 38.3797 18.9646 40.0342 19.3597C39.9107 19.9524 39.8366 20.5697 39.8366 21.1871C39.8366 26.1505 43.9111 30.1756 48.9239 30.1756C53.9367 30.1756 58.0112 26.1505 58.0112 21.1871C58.0112 20.5697 57.9371 19.9771 57.8383 19.3844C59.5669 18.9646 60.4559 18.4214 60.4559 17.8287C60.4559 17.3348 59.8632 16.8657 58.6779 16.4706V14.4951C58.6779 10.9145 56.4802 7.80308 53.3194 6.29676L53.3441 6.32146ZM56.6036 16.0261C54.7516 15.7298 52.2576 15.5569 48.998 15.5569C45.7631 15.5569 43.2444 15.7298 41.3923 16.0261V14.5198C41.3923 12.1739 42.6764 10.0749 44.5778 8.79083C44.6272 10.1737 44.5284 12.322 43.7629 14.3716C44.405 14.3222 45.1705 14.2728 46.0347 14.2234C46.8743 11.4084 46.7509 8.44511 46.6521 7.3339H51.4674C51.3686 8.24757 51.1216 11.1861 52.0353 14.2234C52.8996 14.2481 53.6651 14.2975 54.3071 14.3716C53.5416 12.322 53.4429 10.1737 53.4922 8.79083C55.4183 10.0749 56.6777 12.1739 56.6777 14.5198V16.0261H56.6036Z" fill="#8AC650"/>
<path d="M25.7364 1.35815C25.3907 0.567955 24.6005 0 23.6869 0H17.5875C16.6739 0 15.8837 0.543261 15.5379 1.33346C11.8092 3.11141 9.21636 6.74138 9.21636 10.964V13.3099C7.83351 13.7544 7.14209 14.2977 7.14209 14.8903C7.14209 15.5817 8.17923 16.1991 10.13 16.6682C9.98186 17.3597 9.90778 18.0758 9.90778 18.8166C9.90778 24.6443 14.6737 29.3608 20.6002 29.3608C26.5266 29.3608 31.2925 24.6196 31.2925 18.8166C31.2925 18.1005 31.2184 17.3844 31.0703 16.6929C33.1199 16.2238 34.157 15.5817 34.157 14.8656C34.157 14.273 33.4656 13.7297 32.058 13.2852V10.964C32.058 6.76607 29.4899 3.11141 25.7611 1.33346L25.7364 1.35815ZM29.564 12.7419C27.3909 12.3962 24.4524 12.1987 20.6248 12.1987C16.822 12.1987 13.8588 12.3962 11.6857 12.7419V10.964C11.6857 8.223 13.2167 5.75363 15.4145 4.22262C15.4639 5.82771 15.3651 8.37116 14.4514 10.7665C15.2169 10.6924 16.1059 10.643 17.1183 10.5936C18.1061 7.28464 17.9579 3.80283 17.8345 2.51876H23.4893C23.3658 3.60528 23.0942 7.0624 24.156 10.5936C25.1685 10.643 26.0575 10.6924 26.823 10.7665C25.9093 8.37116 25.8105 5.82771 25.8599 4.22262C28.107 5.72894 29.5887 8.17361 29.5887 10.964V12.7419H29.564Z" fill="#1464FF"/>
</svg>
