<svg width="230" height="58" viewBox="0 0 230 58" fill="none" xmlns="http://www.w3.org/2000/svg">
<path d="M77.4555 31.7209H73.0089V29.2644H82.0896V26.1768H79.9855V21.4003C79.9855 19.6262 78.5459 18.1847 76.774 18.1847H62.0796V21.2809H76.297V26.1768H60.9807V29.2644H69.3203V31.7209H62.0796V34.817H76.9785V40.1565H80.6755V34.9365C80.6755 33.1623 79.2359 31.7209 77.464 31.7209H77.4555Z" fill="#034EA1"/>
<path d="M203.649 17.8606H199.952V40.165H203.649V17.8606Z" fill="#034EA1"/>
<path d="M113.642 29.7932C110.294 29.7932 107.577 27.0723 107.577 23.7203C107.577 20.3682 110.294 17.6473 113.642 17.6473C116.99 17.6473 119.707 20.3682 119.707 23.7203C119.707 27.0723 116.99 29.7932 113.642 29.7932ZM113.642 26.407C115.124 26.407 116.334 25.1959 116.334 23.7118C116.334 22.2276 115.124 21.0165 113.642 21.0165C112.16 21.0165 110.95 22.2276 110.95 23.7118C110.95 25.1959 112.16 26.407 113.642 26.407Z" fill="#034EA1"/>
<path d="M128.405 17.8606H124.708V31.03H128.405V25.4177H131.378V22.33H128.405V17.8606Z" fill="#034EA1"/>
<path d="M177.42 17.8606H173.723V27.8485H170.98V21.2894C170.921 19.6518 169.319 18.2785 167.334 18.1762H157.41V21.3235H167.283V27.8485H164.157V24.8121H160.46V27.8485H156.269V30.9362H173.723V34.0068H177.42V25.4262H180.393V22.33H177.42V17.8606Z" fill="#034EA1"/>
<path d="M116.308 31.4991H112.611V37.1456C112.611 38.9283 114.051 40.3697 115.823 40.3697H128.55V37.2821H116.3V31.5077L116.308 31.4991Z" fill="#034EA1"/>
<path d="M223.88 17.8606V25.8782H218.795C219.229 25.0594 219.468 24.1297 219.468 23.1403C219.468 19.8906 216.836 17.255 213.59 17.255C210.344 17.255 207.712 19.8991 207.712 23.1403C207.712 24.1297 207.959 25.0594 208.394 25.8782H205.974V28.7271H210.958V32.0024H214.655V28.7271H223.88V30.6547H220.004V33.5121H223.88V35.4312H227.577V17.8606H223.88ZM213.59 25.7503C212.15 25.7503 210.983 24.5818 210.983 23.1403C210.983 21.6988 212.15 20.5303 213.59 20.5303C215.03 20.5303 216.197 21.6988 216.197 23.1403C216.197 24.5818 215.03 25.7503 213.59 25.7503Z" fill="#034EA1"/>
<path d="M139.845 31.4991H136.148V37.1456C136.148 38.9283 137.588 40.3697 139.36 40.3697H153.236V37.2736H139.845V31.4991Z" fill="#034EA1"/>
<path d="M149.377 31.03H153.083V17.8691H149.377V22.3812H146.498V25.4774H149.377V31.03Z" fill="#034EA1"/>
<path d="M135.79 29L138.951 22.2959L142.12 29H145.774L142.12 21.2809H145.271V18.1847H132.638V21.2809H135.773L132.127 29H135.79Z" fill="#034EA1"/>
<path d="M97.2951 31.9H104.587V28.8038H89.9948V26.5435H104.11V23.4473H89.9948V21.2809H104.587V18.1847H86.2977V28.6929C86.2977 30.467 87.7374 31.9085 89.5177 31.9085H93.6066V34.2029H85.0114V37.2906H105.899V34.2029H97.3122V31.9085L97.2951 31.9Z" fill="#034EA1"/>
<path d="M164.166 32.8553H160.469V37.1456C160.469 38.9283 161.908 40.3698 163.689 40.3698H177.599V37.2821H164.174V32.8639L164.166 32.8553Z" fill="#034EA1"/>
<path d="M214.655 33.6912H210.958V36.9238C210.958 38.6979 212.397 40.1394 214.178 40.1394H227.577V37.0517H214.655V33.6912Z" fill="#034EA1"/>
<path d="M185.768 27.3111H196.101V18.1676H182.301V21.2723H192.404V24.215H182.071V30.612C182.071 32.3947 183.511 33.8361 185.291 33.8361H196.578V30.7485H185.768V27.3197V27.3111Z" fill="#034EA1"/>
<path d="M44.7189 35.1326L50.8437 29L25.6374 3.76147V54.2385L34.7096 45.1547V25.1106L44.7189 35.1326Z" fill="#0080C5"/>
<path d="M34.7096 35.1327H44.7189L34.7096 25.1106V35.1327Z" fill="#034EA1"/>
<path d="M6.54742 22.8674L0.422607 29L25.6374 54.2385V3.76147L16.5567 12.8453V32.8894L6.54742 22.8674Z" fill="#8AC650"/>
<path d="M16.5567 22.8673H6.54742L16.5567 32.8894V22.8673Z" fill="#008B44"/>
</svg>
