<svg width="39" height="39" viewBox="0 0 39 39" fill="none" xmlns="http://www.w3.org/2000/svg">
<g clip-path="url(#clip0_1447_789)">
<path d="M34.9713 5.08997V9.43934H31.0569V5.08997H21.3472V9.43934H17.4445V5.08997H7.73483V9.43934H3.8204V5.08997H0V36.5112H38.7917V5.08997H34.9713Z" fill="white"/>
<path d="M7.73481 2.28046H3.82037V5.08992H7.73481V2.28046Z" fill="#50AAFF"/>
<path d="M7.73481 5.08997H3.82037V9.43934H7.73481V5.08997Z" fill="#1464FF"/>
<path d="M21.3472 2.28046H17.4445V5.08992H21.3472V2.28046Z" fill="#50AAFF"/>
<path d="M21.3472 5.08997H17.4445V9.43934H21.3472V5.08997Z" fill="#1464FF"/>
<path d="M34.9713 2.28046H31.0569V5.08992H34.9713V2.28046Z" fill="#50AAFF"/>
<path d="M34.9713 5.08997H31.0569V9.43934H34.9713V5.08997Z" fill="#1464FF"/>
<path d="M10.556 13.7887H3.82037V20.5243H10.556V13.7887Z" fill="#50AAFF"/>
<path d="M22.7696 13.7887H16.0339V20.5243H22.7696V13.7887Z" fill="#50AAFF"/>
<path d="M34.9713 13.7887H28.2357V20.5243H34.9713V13.7887Z" fill="#50AAFF"/>
<path d="M10.556 24.0979H3.82037V30.8336H10.556V24.0979Z" fill="#50AAFF"/>
<path d="M22.7696 24.0979H16.0339V30.8336H22.7696V24.0979Z" fill="#50AAFF"/>
<path d="M34.9713 24.0979H28.2357V30.8336H34.9713V24.0979Z" fill="#50AAFF"/>
</g>
<defs>
<clipPath id="clip0_1447_789">
<rect width="38.7917" height="38.7917" fill="white"/>
</clipPath>
</defs>
</svg>
