<svg width="170" height="170" viewBox="0 0 170 170" fill="none" xmlns="http://www.w3.org/2000/svg">
<path d="M127.188 127.368C150.669 103.986 150.75 65.9968 127.368 42.5159C103.986 19.0349 65.9969 18.9543 42.516 42.3359C19.0351 65.7174 18.9545 103.707 42.336 127.188C65.7175 150.669 103.707 150.749 127.188 127.368Z" fill="#D9D9D9"/>
<path d="M105.56 76.0032C107.578 64.5815 99.9544 53.6864 88.5327 51.6684C77.1111 49.6503 66.216 57.2735 64.1979 68.6952C62.1799 80.1169 69.8031 91.0119 81.2247 93.03C92.6464 95.048 103.541 87.4249 105.56 76.0032Z" fill="#B5B5B6"/>
<path d="M91.9895 93.3291H77.8895C61.4895 93.3291 48.1895 106.629 48.1895 123.029V132.229C58.3895 140.129 71.0895 144.829 84.9895 144.829C98.8895 144.829 111.689 140.129 121.789 132.229V123.029C121.689 106.629 108.389 93.3291 91.9895 93.3291Z" fill="#B5B5B6"/>
<path d="M139.89 70.0328H132.29C118.79 70.0328 107.89 59.1328 107.89 45.6328V38.0328C107.89 24.5328 118.79 13.6328 132.29 13.6328H139.89C153.39 13.6328 164.29 24.5328 164.29 38.0328V45.6328C164.19 59.1328 153.29 70.0328 139.89 70.0328Z" fill="#6C6C6C"/>
<path d="M138 38.8516H148V43.8516H138V53.8516H133V43.8516H123V38.8516H133V28.8516H138V38.8516Z" fill="white"/>
</svg>
