<svg width="84" height="69" viewBox="0 0 84 69" fill="none" xmlns="http://www.w3.org/2000/svg">
<path d="M7.63891 52.2758L10.2874 50.631C11.3189 51.2164 12.4619 51.6904 13.6329 52.0249L14.3298 55.0637C14.3298 55.4261 14.6365 55.7328 14.9989 55.7328H19.5153C19.8777 55.7328 20.1844 55.4261 20.1844 55.0637L20.8813 52.0249C21.188 51.9413 21.4947 51.8298 21.8013 51.7182L19.9613 48.7631C19.5989 48.1776 19.4038 47.4807 19.3759 46.7837C18.6789 46.951 17.9819 47.0625 17.2292 47.0625C12.4898 47.0625 8.64255 43.2152 8.64255 38.5037C8.64255 33.7922 12.4898 29.9449 17.2292 29.9449C21.9686 29.9449 25.788 33.7922 25.788 38.5037C25.788 39.5631 25.5929 40.5667 25.2583 41.4867L34.4862 37.4164V36.2455C34.4862 35.8831 34.1795 35.5764 33.8171 35.5764L30.7783 34.8795C30.4716 33.6807 29.9977 32.5655 29.3844 31.534L31.0292 28.8855C31.308 28.6346 31.308 28.1886 31.0292 27.9376L27.8232 24.7316C27.5722 24.4807 27.1262 24.4807 26.8753 24.7316L24.2268 26.4043C23.1953 25.791 22.0522 25.3449 20.8813 25.0104L20.1844 21.9716C20.1844 21.6092 19.8777 21.3025 19.5153 21.3025H14.9989C14.6365 21.3025 14.3298 21.6092 14.3298 21.9716L13.6329 25.0104C12.4619 25.317 11.3189 25.791 10.2874 26.4043L7.63891 24.7316C7.36012 24.4807 6.94194 24.4807 6.66315 24.7316L3.45709 27.9376C3.1783 28.1886 3.1783 28.6346 3.45709 28.8855L5.10194 31.534C4.48861 32.5655 4.04255 33.7086 3.708 34.8795L0.669213 35.5764C0.306789 35.5764 0.00012207 35.8831 0.00012207 36.2455V40.7619C0.00012207 41.1243 0.306789 41.431 0.669213 41.431L3.708 42.1279C4.01467 43.3267 4.48861 44.4419 5.10194 45.4734L3.45709 48.1219C3.1783 48.3728 3.1783 48.8189 3.45709 49.0976L6.66315 52.3037C6.94194 52.5546 7.36012 52.5546 7.61103 52.3037L7.63891 52.2758Z" fill="#1464FF"/>
<path d="M36.0195 17.4552L38.1383 17.7619C38.3892 17.8455 38.6401 17.7619 38.7516 17.4831L39.8947 14.5837C39.9783 14.3328 39.8947 14.0819 39.6159 13.9703L37.8316 12.7715C37.9153 11.9352 37.9153 11.0988 37.7759 10.2625L39.5044 8.98003C39.7553 8.86852 39.8389 8.58973 39.7553 8.3667L38.5007 5.49518C38.3892 5.27215 38.1104 5.16064 37.8874 5.24427L35.7686 5.63458C35.2389 4.99337 34.6534 4.40791 33.9565 3.90609L34.2631 1.78731C34.3468 1.5364 34.2631 1.28549 34.0122 1.17397L31.1128 0.0309411C30.8619 -0.0526952 30.611 0.0309409 30.4995 0.309729L29.3007 2.09397C28.4644 2.01033 27.628 2.01034 26.7916 2.14973L25.5092 0.421244C25.3977 0.198214 25.1189 0.0866993 24.8959 0.170336L22.0244 1.42488C21.7735 1.5364 21.6898 1.81518 21.7735 2.03821L22.1638 4.157C21.5225 4.6867 20.9371 5.27215 20.4353 5.96912L18.3165 5.66246C18.0656 5.57882 17.8147 5.66246 17.7031 5.94124L16.5601 8.84064C16.4765 9.09155 16.5601 9.34246 16.8389 9.45397L18.6231 10.6528C18.5395 11.4891 18.5395 12.3255 18.6789 13.1619L16.9504 14.4443C16.6995 14.5558 16.6159 14.8346 16.6995 15.0576L17.9541 17.9012C18.0656 18.1243 18.3444 18.2358 18.5674 18.1522L20.6862 17.7619C21.2159 18.4031 21.8013 18.9885 22.4983 19.4903L22.1916 21.6091C22.108 21.86 22.1916 22.1109 22.4704 22.2225L25.3698 23.3655C25.6207 23.4491 25.8716 23.3655 25.9831 23.1146L27.1819 21.3303C28.0183 21.414 28.8547 21.414 29.691 21.2746L30.9735 23.0031C31.085 23.2261 31.3638 23.3376 31.5868 23.254L34.4583 21.9994C34.7092 21.8879 34.7928 21.6091 34.7092 21.3861L34.3189 19.2673C34.9601 18.7376 35.5456 18.1522 36.0474 17.4552H36.0195ZM33.371 13.7473C32.2559 16.5909 29.0777 17.9849 26.2341 16.8697C23.3904 15.7546 21.9965 12.5764 23.1116 9.73276C24.2268 6.88912 27.405 5.49518 30.2486 6.61034C33.0922 7.72549 34.4862 10.9037 33.371 13.7473Z" fill="#8AC650"/>
<path d="M21.9965 46.2261C21.885 46.6164 21.9408 47.0346 22.1359 47.397L29.4402 59.0782C29.9977 58.2976 30.6947 57.6285 31.559 57.1267L25.4256 47.2855L40.1456 40.7898L48.1747 53.391L49.5129 50.2407L41.8741 38.2528C41.5117 37.6673 40.759 37.4443 40.1177 37.7231L22.7771 45.3619C22.4147 45.5292 22.108 45.8358 21.9965 46.2261Z" fill="#8AC650"/>
<path d="M39.9226 53.4746C40.2014 52.7498 39.839 51.9413 39.0862 51.6625C38.3614 51.3837 37.5529 51.7461 37.2741 52.4988L34.8765 58.8831C32.2281 59.357 30.9735 61.0855 30.9735 63.511C30.9735 66.6334 32.9808 68.3061 36.4378 68.3061H54.1965C56.7893 68.3061 58.7687 66.8564 60.0232 64.2916C61.7517 60.7788 64.679 54.7013 66.5468 50.8819L69.8365 51.774L62.5323 66.6334H83.7202L80.9044 46.5328C79.4826 37.6116 74.4365 33.6807 67.7456 33.6807C62.8668 33.6807 58.3784 36.3849 55.8414 42.6855L49.6244 57.3498L38.0826 58.5207L39.9784 53.5025L39.9226 53.4746Z" fill="#1464FF"/>
<path d="M62.4765 31.8128C66.491 30.0285 69.3068 25.9861 69.3068 21.2746C69.3068 19.3788 68.8328 17.5946 68.0243 16.0334L69.4462 15.5873C70.7286 15.1691 71.4813 13.8031 71.0631 12.4928C70.6171 11.1546 69.4183 10.7922 68.554 10.82C67.1043 5.69034 61.7795 1.22974 55.7298 1.22974C54.5031 1.22974 53.2486 1.42489 51.9662 1.81519C44.9128 4.07337 40.9262 11.7122 43.7419 19.8528L43.0728 20.1316C43.0728 20.1316 42.571 20.3267 42.4874 20.4103L40.3686 21.8322C40.2292 21.9994 40.1734 22.2225 40.2571 22.4176L40.7031 23.8952C40.7868 24.1461 41.0377 24.3134 41.4001 24.3134C41.5116 24.3134 41.651 24.3134 41.8183 24.2576L46.3068 22.8358C47.6449 31.06 55.8692 34.74 62.4486 31.7849L62.4765 31.8128ZM46.2789 19.8528C46.2789 19.6019 46.2231 19.3231 46.1395 19.0722C44.9965 15.7546 45.1359 12.3813 46.5298 9.56549C47.8122 7.02852 50.0146 5.13277 52.7468 4.26852C53.6946 3.96186 54.6983 3.79458 55.7019 3.79458C60.8595 3.79458 65.0413 7.72549 66.1286 11.517C66.3237 12.1861 66.7698 12.7437 67.3831 13.0782C67.4946 13.134 67.5504 13.2455 67.5225 13.357C67.4946 13.4685 67.4389 13.58 67.3274 13.6079L46.6413 20.1316C46.6413 20.1316 46.251 20.1316 46.2789 19.8806V19.8528Z" fill="#1464FF"/>
</svg>
