<svg width="240" height="50" viewBox="0 0 240 50" fill="none" xmlns="http://www.w3.org/2000/svg">
<g clip-path="url(#clip0_867_43)">
<path d="M90.7806 27.111H87.3199V25.2051H94.3871V22.8095H92.7496V19.1036C92.7496 17.7271 91.6292 16.6088 90.2502 16.6088H78.8141V19.011H89.879V22.8095H77.9589V25.2051H84.4493V27.111H78.8141V29.5132H90.4093V33.6558H93.2866V29.6058C93.2866 28.2294 92.1662 27.111 90.7872 27.111H90.7806Z" fill="#034EA1"/>
<path d="M188.992 16.3573H186.115V33.6624H188.992V16.3573Z" fill="#034EA1"/>
<path d="M118.943 25.6154C116.338 25.6154 114.223 23.5044 114.223 20.9037C114.223 18.3029 116.338 16.1919 118.943 16.1919C121.549 16.1919 123.664 18.3029 123.664 20.9037C123.664 23.5044 121.549 25.6154 118.943 25.6154ZM118.943 22.9882C120.097 22.9882 121.038 22.0485 121.038 20.897C121.038 19.7456 120.097 18.8059 118.943 18.8059C117.79 18.8059 116.848 19.7456 116.848 20.897C116.848 22.0485 117.79 22.9882 118.943 22.9882Z" fill="#034EA1"/>
<path d="M130.432 16.3573H127.555V26.5749H130.432V22.2205H132.746V19.8249H130.432V16.3573Z" fill="#034EA1"/>
<path d="M168.579 16.3573H165.702V24.1066H163.567V19.0176C163.521 17.747 162.275 16.6816 160.73 16.6022H153.006V19.0441H160.69V24.1066H158.257V21.7507H155.38V24.1066H152.118V26.5022H165.702V28.8845H168.579V22.2272H170.893V19.8249H168.579V16.3573Z" fill="#034EA1"/>
<path d="M121.018 26.939H118.141V31.3198C118.141 32.7029 119.261 33.8213 120.64 33.8213H130.545V31.4257H121.012V26.9456L121.018 26.939Z" fill="#034EA1"/>
<path d="M204.737 16.3573V22.5779H200.779C201.118 21.9426 201.303 21.2213 201.303 20.4536C201.303 17.9323 199.255 15.8875 196.729 15.8875C194.203 15.8875 192.154 17.9389 192.154 20.4536C192.154 21.2213 192.347 21.9426 192.685 22.5779H190.802V24.7882H194.68V27.3294H197.557V24.7882H204.737V26.2838H201.721V28.5007H204.737V29.9897H207.615V16.3573H204.737ZM196.729 22.4786C195.608 22.4786 194.7 21.572 194.7 20.4536C194.7 19.3352 195.608 18.4286 196.729 18.4286C197.849 18.4286 198.757 19.3352 198.757 20.4536C198.757 21.572 197.849 22.4786 196.729 22.4786Z" fill="#034EA1"/>
<path d="M139.336 26.939H136.459V31.3198C136.459 32.7029 137.579 33.8213 138.958 33.8213H149.758V31.4191H139.336V26.939Z" fill="#034EA1"/>
<path d="M146.755 26.5749H149.638V16.3639H146.755V19.8646H144.514V22.2668H146.755V26.5749Z" fill="#034EA1"/>
<path d="M136.18 24.9999L138.64 19.7985L141.106 24.9999H143.95L141.106 19.011H143.559V16.6088H133.727V19.011H136.167L133.33 24.9999H136.18Z" fill="#034EA1"/>
<path d="M106.221 27.2499H111.896V24.8477H100.539V23.0941H111.525V20.6919H100.539V19.011H111.896V16.6088H97.6621V24.7617C97.6621 26.1382 98.7826 27.2566 100.168 27.2566H103.35V29.0367H96.6611V31.4323H112.917V29.0367H106.234V27.2566L106.221 27.2499Z" fill="#034EA1"/>
<path d="M158.264 27.9911H155.386V31.3198C155.386 32.7029 156.507 33.8212 157.892 33.8212H168.719V31.4256H158.27V27.9977L158.264 27.9911Z" fill="#034EA1"/>
<path d="M197.557 28.6396H194.68V31.1477C194.68 32.5242 195.801 33.6426 197.186 33.6426H207.615V31.247H197.557V28.6396Z" fill="#034EA1"/>
<path d="M175.076 23.6897H183.118V16.5956H172.378V19.0044H180.241V21.2875H172.199V26.2507C172.199 27.6338 173.319 28.7522 174.705 28.7522H183.489V26.3566H175.076V23.6963V23.6897Z" fill="#034EA1"/>
<path d="M65.303 29.758L70.0697 25L50.4526 5.41833V44.5816L57.5132 37.5338V21.9823L65.303 29.758Z" fill="#0080C5"/>
<path d="M57.5132 29.758H65.303L57.5132 21.9823V29.758Z" fill="#034EA1"/>
<path d="M35.5956 20.2419L30.8289 25L50.4526 44.5816V5.41833L43.3854 12.4661V28.0176L35.5956 20.2419Z" fill="#8AC650"/>
<path d="M43.3854 20.2418H35.5956L43.3854 28.0176V20.2418Z" fill="#008B44"/>
</g>
<defs>
<clipPath id="clip0_867_43">
<rect width="179" height="45" fill="white" transform="translate(30.5 2.5)"/>
</clipPath>
</defs>
</svg>
